<svg width="223" height="57" viewBox="0 0 223 57" fill="none" xmlns="http://www.w3.org/2000/svg">
<path d="M70.8963 44V22.1818H85.598V25.9851H75.5092V31.1839H84.8416V34.9872H75.5092V40.1967H85.6406V44H70.8963ZM93.8464 44.3089C92.8024 44.3089 91.872 44.1278 91.0552 43.7656C90.2385 43.3963 89.5922 42.853 89.1163 42.1357C88.6475 41.4112 88.4132 40.5092 88.4132 39.4297C88.4132 38.5206 88.5801 37.7571 88.9139 37.1392C89.2477 36.5213 89.7022 36.0241 90.2775 35.6477C90.8528 35.2713 91.5062 34.9872 92.2377 34.7955C92.9764 34.6037 93.7505 34.4688 94.5602 34.3906C95.5119 34.2912 96.2789 34.1989 96.8613 34.1136C97.4437 34.0213 97.8663 33.8864 98.1291 33.7088C98.3919 33.5312 98.5233 33.2685 98.5233 32.9205V32.8565C98.5233 32.1818 98.3102 31.6598 97.8841 31.2905C97.465 30.9212 96.8684 30.7365 96.0943 30.7365C95.2775 30.7365 94.6277 30.9176 94.1447 31.2798C93.6618 31.6349 93.3422 32.0824 93.1859 32.6222L88.9885 32.2812C89.2015 31.2869 89.6206 30.4276 90.2456 29.7031C90.8706 28.9716 91.6767 28.4105 92.6639 28.0199C93.6582 27.6222 94.8088 27.4233 96.1156 27.4233C97.0247 27.4233 97.8947 27.5298 98.7257 27.7429C99.5637 27.956 100.306 28.2862 100.952 28.7337C101.606 29.1811 102.121 29.7564 102.497 30.4595C102.873 31.1555 103.062 31.9901 103.062 32.9631V44H98.7576V41.7308H98.6298C98.367 42.2422 98.0154 42.6932 97.5751 43.0838C97.1348 43.4673 96.6056 43.7692 95.9877 43.9893C95.3699 44.2024 94.6561 44.3089 93.8464 44.3089ZM95.1461 41.1768C95.8137 41.1768 96.4032 41.0455 96.9146 40.7827C97.426 40.5128 97.8272 40.1506 98.1184 39.696C98.4096 39.2415 98.5552 38.7266 98.5552 38.1513V36.4148C98.4132 36.5071 98.2179 36.5923 97.9693 36.6705C97.7278 36.7415 97.4544 36.8089 97.149 36.8729C96.8436 36.9297 96.5382 36.983 96.2328 37.0327C95.9274 37.0753 95.6504 37.1143 95.4018 37.1499C94.8691 37.228 94.4039 37.3523 94.0062 37.5227C93.6085 37.6932 93.2995 37.924 93.0794 38.2152C92.8592 38.4993 92.7491 38.8544 92.7491 39.2805C92.7491 39.8984 92.9728 40.3707 93.4203 40.6974C93.8748 41.017 94.4501 41.1768 95.1461 41.1768ZM120.198 32.3026L116.043 32.5582C115.972 32.2031 115.819 31.8835 115.585 31.5994C115.35 31.3082 115.041 31.0774 114.658 30.907C114.281 30.7294 113.83 30.6406 113.305 30.6406C112.602 30.6406 112.009 30.7898 111.526 31.0881C111.043 31.3793 110.801 31.7699 110.801 32.2599C110.801 32.6506 110.958 32.9808 111.27 33.2507C111.583 33.5206 112.119 33.7372 112.879 33.9006L115.84 34.4972C117.431 34.8239 118.617 35.3494 119.399 36.0739C120.18 36.7983 120.57 37.75 120.57 38.929C120.57 40.0014 120.254 40.9425 119.622 41.7521C118.997 42.5618 118.138 43.1939 117.044 43.6484C115.958 44.0959 114.704 44.3196 113.284 44.3196C111.117 44.3196 109.392 43.8686 108.106 42.9666C106.828 42.0575 106.078 40.8217 105.858 39.2592L110.322 39.0249C110.457 39.6854 110.784 40.1896 111.302 40.5376C111.82 40.8786 112.485 41.049 113.294 41.049C114.09 41.049 114.729 40.8963 115.212 40.5909C115.702 40.2784 115.95 39.8771 115.958 39.3871C115.95 38.9751 115.776 38.6378 115.436 38.375C115.095 38.1051 114.569 37.8991 113.859 37.7571L111.025 37.1925C109.427 36.8729 108.237 36.3189 107.456 35.5305C106.682 34.7422 106.295 33.7372 106.295 32.5156C106.295 31.4645 106.579 30.5589 107.147 29.799C107.722 29.0391 108.529 28.4531 109.566 28.0412C110.61 27.6293 111.831 27.4233 113.23 27.4233C115.297 27.4233 116.923 27.8601 118.11 28.7337C119.303 29.6072 119.999 30.7969 120.198 32.3026ZM126.23 50.1364C125.655 50.1364 125.115 50.0902 124.611 49.9979C124.114 49.9126 123.702 49.8026 123.375 49.6676L124.398 46.2798C124.93 46.4432 125.41 46.532 125.836 46.5462C126.269 46.5604 126.642 46.4609 126.955 46.2479C127.274 46.0348 127.533 45.6726 127.732 45.1612L127.999 44.4688L122.129 27.6364H126.901L130.289 39.6534H130.46L133.879 27.6364H138.684L132.324 45.7685C132.018 46.6491 131.603 47.4162 131.077 48.0696C130.559 48.7301 129.902 49.2379 129.107 49.593C128.311 49.9553 127.352 50.1364 126.23 50.1364ZM141.837 44V22.1818H144.479V31.8977H156.113V22.1818H158.755V44H156.113V34.2415H144.479V44H141.837ZM170.351 44.3409C168.874 44.3409 167.578 43.9893 166.463 43.2862C165.355 42.5831 164.488 41.5994 163.863 40.3352C163.245 39.071 162.936 37.5937 162.936 35.9034C162.936 34.1989 163.245 32.7109 163.863 31.4396C164.488 30.1683 165.355 29.1811 166.463 28.478C167.578 27.7749 168.874 27.4233 170.351 27.4233C171.828 27.4233 173.121 27.7749 174.229 28.478C175.344 29.1811 176.211 30.1683 176.828 31.4396C177.453 32.7109 177.766 34.1989 177.766 35.9034C177.766 37.5937 177.453 39.071 176.828 40.3352C176.211 41.5994 175.344 42.5831 174.229 43.2862C173.121 43.9893 171.828 44.3409 170.351 44.3409ZM170.351 42.0824C171.473 42.0824 172.397 41.7947 173.121 41.2195C173.846 40.6442 174.382 39.8878 174.73 38.9503C175.078 38.0128 175.252 36.9972 175.252 35.9034C175.252 34.8097 175.078 33.7905 174.73 32.8459C174.382 31.9013 173.846 31.1378 173.121 30.5554C172.397 29.973 171.473 29.6818 170.351 29.6818C169.229 29.6818 168.306 29.973 167.581 30.5554C166.857 31.1378 166.321 31.9013 165.973 32.8459C165.625 33.7905 165.451 34.8097 165.451 35.9034C165.451 36.9972 165.625 38.0128 165.973 38.9503C166.321 39.8878 166.857 40.6442 167.581 41.2195C168.306 41.7947 169.229 42.0824 170.351 42.0824ZM181.604 44V27.6364H184.033V30.1932H184.246C184.587 29.3196 185.137 28.6413 185.897 28.1584C186.657 27.6683 187.57 27.4233 188.635 27.4233C189.715 27.4233 190.613 27.6683 191.33 28.1584C192.055 28.6413 192.619 29.3196 193.024 30.1932H193.195C193.614 29.348 194.242 28.6768 195.08 28.1797C195.919 27.6754 196.923 27.4233 198.095 27.4233C199.558 27.4233 200.755 27.8814 201.686 28.7976C202.616 29.7067 203.081 31.1236 203.081 33.0483V44H200.567V33.0483C200.567 31.8409 200.237 30.978 199.576 30.4595C198.916 29.9411 198.138 29.6818 197.243 29.6818C196.093 29.6818 195.201 30.0298 194.569 30.7259C193.937 31.4148 193.621 32.2884 193.621 33.3466V44H191.064V32.7926C191.064 31.8622 190.762 31.1129 190.159 30.5447C189.555 29.9695 188.777 29.6818 187.825 29.6818C187.172 29.6818 186.561 29.8558 185.993 30.2038C185.432 30.5518 184.977 31.0348 184.629 31.6527C184.289 32.2635 184.118 32.9702 184.118 33.7727V44H181.604ZM214.539 44.3409C212.962 44.3409 211.602 43.9929 210.459 43.2969C209.322 42.5938 208.445 41.6136 207.827 40.3565C207.216 39.0923 206.911 37.6222 206.911 35.946C206.911 34.2699 207.216 32.7926 207.827 31.5142C208.445 30.2287 209.305 29.2273 210.405 28.5099C211.513 27.7855 212.806 27.4233 214.283 27.4233C215.135 27.4233 215.977 27.5653 216.808 27.8494C217.639 28.1335 218.395 28.5952 219.077 29.2344C219.759 29.8665 220.302 30.7045 220.707 31.7486C221.112 32.7926 221.314 34.0781 221.314 35.6051V36.6705H208.701V34.4972H218.758C218.758 33.5739 218.573 32.75 218.204 32.0256C217.841 31.3011 217.323 30.7294 216.648 30.3104C215.981 29.8913 215.192 29.6818 214.283 29.6818C213.282 29.6818 212.415 29.9304 211.684 30.4276C210.959 30.9176 210.402 31.5568 210.011 32.3452C209.621 33.1335 209.425 33.9787 209.425 34.8807V36.3295C209.425 37.5653 209.638 38.6129 210.064 39.4723C210.498 40.3246 211.098 40.9744 211.865 41.4219C212.632 41.8622 213.523 42.0824 214.539 42.0824C215.199 42.0824 215.796 41.9901 216.329 41.8054C216.868 41.6136 217.334 41.3295 217.724 40.9531C218.115 40.5696 218.417 40.0937 218.63 39.5256L221.059 40.2074C220.803 41.0312 220.373 41.7557 219.77 42.3807C219.166 42.9986 218.42 43.4815 217.532 43.8295C216.645 44.1705 215.647 44.3409 214.539 44.3409Z" fill="white"/>
<mask id="mask0_16_981" style="mask-type:alpha" maskUnits="userSpaceOnUse" x="0" y="0" width="57" height="57">
<path fill-rule="evenodd" clip-rule="evenodd" d="M27.0598 5.76518C27.9378 5.20327 29.0624 5.20327 29.9404 5.76518L52.206 20.0152C53.4489 20.8106 53.8116 22.463 53.0162 23.7059C52.2207 24.9488 50.5683 25.3115 49.3254 24.5161L47.2032 23.1578V44.5312C47.2032 48.4663 44.0132 51.6562 40.0782 51.6562H16.922C12.9869 51.6562 9.79696 48.4663 9.79696 44.5312V23.1579L7.67475 24.5161C6.43186 25.3115 4.77946 24.9488 3.98402 23.7059C3.18857 22.463 3.55129 20.8106 4.79418 20.0152L27.0598 5.76518ZM19.5938 31.6172C19.5938 32.9338 20.1132 34.129 20.9583 35.0092L27.224 41.4403C27.9233 42.158 29.0768 42.1579 29.7759 41.44L35.9151 35.1365C36.8347 34.246 37.4063 32.9984 37.4063 31.6172C37.4063 28.9119 35.2132 26.7188 32.5079 26.7188C30.8512 26.7188 29.3866 28.5431 28.5001 29.802C27.6136 28.5431 26.149 26.7188 24.4923 26.7188C21.7869 26.7188 19.5938 28.9119 19.5938 31.6172Z" fill="black"/>
</mask>
<g mask="url(#mask0_16_981)">
<rect x="-11.8171" y="-11.8171" width="86.8902" height="85.5" fill="white"/>
</g>
</svg>

